<?xml version="1.0" encoding="utf-8"?>
<!-- Generator: Adobe Illustrator 23.0.3, SVG Export Plug-In . SVG Version: 6.00 Build 0)  -->
<svg version="1.1" id="visual" xmlns="http://www.w3.org/2000/svg" xmlns:xlink="http://www.w3.org/1999/xlink" x="0px" y="0px"
	 viewBox="0 0 1113.2 1029.4" style="enable-background:new 0 0 1113.2 1029.4;" xml:space="preserve">
<style type="text/css">
	.st0{fill:#00C030;}
</style>
<g transform="translate(955.5683825264161 530.6579442212997)">
	<path class="st0" d="M-66.7-473.5C13.7-420.8,48.4-299.6,85.9-180.3c37.5,119.4,77.8,236.9,53.3,339.9
		C114.7,262.5,25.3,350.9-75.1,406.1c-100.5,55.2-212.2,77.1-323.4,76.5c-111.2-0.7-221.9-24-328.9-77.1
		c-107-53-210.3-135.9-208.4-229.4c1.8-93.6,108.8-197.9,179-283.4c70.1-85.4,103.5-152.1,157-213.5
		c53.5-61.5,127.1-117.7,227-153.7C-273-510.5-147-526.3-66.7-473.5"/>
</g>
</svg>
