<svg id="visual" viewBox="0 0 1920 1080" width="1920" height="1080" xmlns="http://www.w3.org/2000/svg" xmlns:xlink="http://www.w3.org/1999/xlink" version="1.1"><g transform="translate(955.5683825264161 530.6579442212997)"><path d="M332.3 -451.7C412.7 -399 447.4 -277.8 484.9 -158.5C522.4 -39.1 562.7 78.4 538.2 181.4C513.7 284.3 424.3 372.7 323.9 427.9C223.4 483.1 111.7 505 0.5 504.4C-110.7 503.7 -221.4 480.4 -328.4 427.3C-435.4 374.3 -538.7 291.4 -536.8 197.9C-535 104.3 -428 0 -357.8 -85.5C-287.7 -170.9 -254.3 -237.6 -200.8 -299C-147.3 -360.5 -73.7 -416.7 26.2 -452.7C126 -488.7 252 -504.5 332.3 -451.7" fill="#00c030"></path></g></svg>